Coordinates
version=1
nRows=31
nColumns=38
inDegrees=no

Units are S.I. units (second, meters, Newtons, ...)
If the header above contains a line with 'inDegrees', this indicates whether rotational values are in degrees (yes) or radians (no).

endheader
time	pelvis_tilt	pelvis_list	pelvis_rotation	pelvis_tx	pelvis_ty	pelvis_tz	hip_flexion_r	hip_adduction_r	hip_rotation_r	knee_angle_r	ankle_angle_r	subtalar_angle_r	mtp_angle_r	hip_flexion_l	hip_adduction_l	hip_rotation_l	knee_angle_l	ankle_angle_l	subtalar_angle_l	mtp_angle_l	lumbar_extension	lumbar_bending	lumbar_rotation	arm_flex_r	arm_add_r	arm_rot_r	elbow_flex_r	pro_sup_r	wrist_flex_r	wrist_dev_r	arm_flex_l	arm_add_l	arm_rot_l	elbow_flex_l	pro_sup_l	wrist_flex_l	wrist_dev_l
0.91	2.8712	1.53452	-1.23569	0.691782	1.53795	1.02781	0.468184	0.00833836	-0.185705	0.448725	-0.118819	0	0	-0.21162	0.0224754	-0.190468	0.334829	-0.147108	0	0	-0.330945	0.0143485	-0.071004	0.0218694	-0.298399	0.739487	0.404625	1.0781	0	0	-0.183285	-0.349103	0.325183	0.645572	1.11102	0	0
0.92	2.78975	1.53715	-1.1497	0.691667	1.54796	1.02629	0.464791	0.0117545	-0.19853	0.403841	-0.12057	0	0	-0.215913	0.0179151	-0.190818	0.341564	-0.14171	0	0	-0.328139	0.017799	-0.0721645	0.0209823	-0.29267	0.728172	0.395741	1.08953	0	0	-0.181683	-0.350441	0.32873	0.645079	1.10942	0	0
0.93	2.71264	1.53892	-1.06699	0.691558	1.55812	1.02478	0.462283	0.0144041	-0.204117	0.370967	-0.116428	0	0	-0.221679	0.0133236	-0.190394	0.346322	-0.138358	0	0	-0.326263	0.0213552	-0.0733213	0.0191526	-0.289592	0.722579	0.391342	1.09117	0	0	-0.179557	-0.352399	0.333759	0.645033	1.10708	0	0
0.94	2.64972	1.53899	-0.997763	0.691415	1.56841	1.02337	0.459646	0.0172069	-0.202704	0.350072	-0.108647	0	0	-0.229623	0.00821041	-0.18942	0.349767	-0.135958	0	0	-0.326171	0.0254298	-0.0750799	0.0168087	-0.287307	0.716273	0.388988	1.09199	0	0	-0.177588	-0.354576	0.338875	0.645687	1.10411	0	0
0.95	2.60202	1.53889	-0.94333	0.691217	1.57886	1.02196	0.459562	0.0188115	-0.200433	0.344096	-0.103229	0	0	-0.237807	0.00339336	-0.187729	0.353329	-0.134961	0	0	-0.326484	0.0293052	-0.0772248	0.0138211	-0.286184	0.711059	0.388982	1.09203	0	0	-0.176056	-0.356407	0.342497	0.646801	1.10188	0	0
0.96	2.57267	1.53859	-0.906994	0.69093	1.58949	1.02054	0.460935	0.0192977	-0.197591	0.350218	-0.0996242	0	0	-0.246142	-0.0011492	-0.185921	0.357924	-0.133926	0	0	-0.326446	0.0328382	-0.0818129	0.0128926	-0.284778	0.713664	0.386547	1.09042	0	0	-0.177196	-0.356398	0.339081	0.647777	1.1035	0	0
0.97	2.57127	1.53778	-0.898649	0.69057	1.60029	1.01914	0.463191	0.018568	-0.195039	0.367867	-0.0986932	0	0	-0.255188	-0.00548423	-0.184685	0.363692	-0.132871	0	0	-0.327154	0.036034	-0.0873424	0.0113928	-0.284083	0.715133	0.386015	1.08815	0	0	-0.179192	-0.356424	0.336286	0.648646	1.10628	0	0
0.98	2.58476	1.537	-0.905447	0.690231	1.61126	1.01766	0.466144	0.0170322	-0.192299	0.394144	-0.102088	0	0	-0.263802	-0.00973144	-0.184936	0.371283	-0.131862	0	0	-0.327869	0.0386885	-0.0934152	0.00909601	-0.284094	0.716154	0.387517	1.08566	0	0	-0.181815	-0.356706	0.335309	0.648482	1.11355	0	0
0.99	2.60758	1.53638	-0.922211	0.689928	1.62252	1.0161	0.468657	0.0152476	-0.187887	0.424436	-0.108432	0	0	-0.271678	-0.013481	-0.186419	0.38052	-0.13066	0	0	-0.328228	0.0409768	-0.0992559	0.00564118	-0.28492	0.716576	0.39079	1.08289	0	0	-0.185153	-0.356673	0.332647	0.648709	1.11998	0	0
1	2.63147	1.53605	-0.940365	0.689674	1.63408	1.01437	0.472207	0.0130403	-0.182469	0.461238	-0.11797	0	0	-0.27837	-0.0174429	-0.189728	0.392917	-0.128793	0	0	-0.328887	0.0432665	-0.102761	-0.00420823	-0.287452	0.697556	0.402554	1.08802	0	0	-0.187539	-0.35785	0.333627	0.650459	1.12098	0	0
1.01	2.64167	1.53507	-0.9441	0.689549	1.64599	1.01271	0.471252	0.0131275	-0.173044	0.490872	-0.12306	0	0	-0.285607	-0.0224811	-0.190313	0.404476	-0.129293	0	0	-0.327736	0.0459793	-0.110525	-0.00789581	-0.287459	0.699908	0.403922	1.08721	0	0	-0.19346	-0.357606	0.328657	0.650607	1.12508	0	0
1.02	2.6248	1.53346	-0.920151	0.689508	1.65812	1.01111	0.469561	0.01463	-0.167374	0.518352	-0.129003	0	0	-0.291407	-0.0298887	-0.191774	0.419408	-0.129923	0	0	-0.326373	0.050083	-0.118215	-0.0126234	-0.28798	0.701065	0.406452	1.08584	0	0	-0.199193	-0.357179	0.324366	0.649852	1.12982	0	0
1.03	2.57135	1.53033	-0.859665	0.689449	1.67032	1.00988	0.467691	0.0176101	-0.166321	0.53769	-0.135782	0	0	-0.295994	-0.0397853	-0.192288	0.437051	-0.131276	0	0	-0.325507	0.0567925	-0.124705	-0.0173105	-0.288971	0.701572	0.408692	1.08417	0	0	-0.203443	-0.355753	0.320801	0.64747	1.1342	0	0
1.04	2.4877	1.52524	-0.769649	0.689299	1.68251	1.00917	0.466322	0.0219503	-0.167988	0.550072	-0.145725	0	0	-0.299012	-0.0519774	-0.191673	0.458067	-0.13355	0	0	-0.325195	0.0664627	-0.129525	-0.02163	-0.290909	0.70151	0.411026	1.08223	0	0	-0.206009	-0.352511	0.317902	0.642742	1.13901	0	0
1.05	2.39679	1.51847	-0.67454	0.689226	1.69476	1.00892	0.465097	0.0285445	-0.170023	0.562979	-0.161759	0	0	-0.300628	-0.0652731	-0.191073	0.482116	-0.137535	0	0	-0.325081	0.0778721	-0.131592	-0.0257211	-0.293612	0.701186	0.413368	1.08039	0	0	-0.207602	-0.34771	0.314724	0.636828	1.14363	0	0
1.06	2.31737	1.50997	-0.594578	0.689498	1.70709	1.00906	0.463177	0.0386873	-0.171472	0.578405	-0.194418	0	0	-0.30063	-0.0796206	-0.194852	0.512029	-0.145346	0	0	-0.327162	0.0905104	-0.125309	-0.037317	-0.297107	0.672842	0.423871	1.092	0	0	-0.203331	-0.345136	0.326972	0.629061	1.13996	0	0
1.07	2.27157	1.50147	-0.551289	0.690189	1.71948	1.00968	0.460206	0.0502364	-0.16889	0.594559	-0.203161	0	0	-0.301258	-0.0908094	-0.193717	0.54135	-0.15199	0	0	-0.328311	0.100282	-0.122333	-0.0379132	-0.297389	0.6767	0.419621	1.09338	0	0	-0.205728	-0.339001	0.320332	0.622667	1.14692	0	0
1.08	2.24005	1.49377	-0.524906	0.691104	1.73194	1.01044	0.457602	0.0623137	-0.160093	0.611994	-0.211771	0	0	-0.298851	-0.100373	-0.194514	0.577472	-0.16198	0	0	-0.329518	0.10829	-0.117103	-0.0392926	-0.29849	0.679498	0.41735	1.09366	0	0	-0.208035	-0.332732	0.313566	0.615771	1.15596	0	0
1.09	2.21599	1.489	-0.50765	0.692244	1.74442	1.01108	0.45554	0.073173	-0.143521	0.629893	-0.219048	0	0	-0.291591	-0.106827	-0.195817	0.619696	-0.176072	0	0	-0.329171	0.112808	-0.111143	-0.0413976	-0.299625	0.682785	0.416073	1.09401	0	0	-0.211079	-0.326557	0.304065	0.609327	1.16613	0	0
1.1	2.19941	1.48678	-0.49789	0.69347	1.75681	1.0117	0.452667	0.0816433	-0.127573	0.645828	-0.221335	0	0	-0.280262	-0.110481	-0.194997	0.663869	-0.192823	0	0	-0.327824	0.114495	-0.106153	-0.0435501	-0.300241	0.685875	0.414894	1.09435	0	0	-0.214413	-0.321814	0.296053	0.60334	1.17659	0	0
1.11	2.16795	1.48543	-0.472505	0.694688	1.76912	1.01223	0.450243	0.088919	-0.117685	0.659728	-0.216665	0	0	-0.262632	-0.114163	-0.19167	0.713788	-0.220117	0	0	-0.324969	0.116578	-0.0994387	-0.0498888	-0.302197	0.67879	0.41925	1.09395	0	0	-0.213369	-0.323389	0.312736	0.597385	1.16656	0	0
1.12	2.16822	1.48182	-0.476395	0.695621	1.78108	1.01317	0.441887	0.095103	-0.116652	0.668026	-0.213939	0	0	-0.245704	-0.116957	-0.179651	0.764458	-0.239085	0	0	-0.326582	0.12031	-0.0948332	-0.0550481	-0.305298	0.672276	0.425631	1.09168	0	0	-0.212827	-0.325341	0.326574	0.595285	1.15588	0	0
1.13	2.14819	1.47783	-0.458105	0.696363	1.79282	1.01404	0.433249	0.101905	-0.120074	0.6722	-0.211263	0	0	-0.223963	-0.120457	-0.163637	0.818316	-0.258201	0	0	-0.325521	0.125637	-0.0954423	-0.054659	-0.30702	0.679302	0.424521	1.0955	0	0	-0.217847	-0.321305	0.314707	0.594036	1.16562	0	0
1.14	2.10206	1.47378	-0.41273	0.696965	1.80433	1.01458	0.426459	0.109795	-0.126849	0.675738	-0.197989	0	0	-0.196832	-0.125075	-0.146593	0.875786	-0.284874	0	0	-0.322367	0.133117	-0.0944762	-0.0583565	-0.313176	0.683479	0.432509	1.09093	0	0	-0.220146	-0.319548	0.314482	0.592984	1.16643	0	0
1.15	2.06647	1.46901	-0.377529	0.697545	1.81548	1.01514	0.417712	0.11851	-0.134092	0.678108	-0.187608	0	0	-0.169596	-0.129029	-0.127682	0.933172	-0.302449	0	0	-0.320702	0.14093	-0.0929729	-0.0631998	-0.318521	0.678818	0.441164	1.09067	0	0	-0.22166	-0.321108	0.32329	0.595602	1.15712	0	0
1.16	2.02779	1.46484	-0.339268	0.698235	1.8263	1.0156	0.409281	0.127371	-0.139537	0.680146	-0.176685	0	0	-0.140073	-0.132449	-0.109064	0.991516	-0.320059	0	0	-0.318493	0.147879	-0.0908138	-0.0676179	-0.323791	0.675271	0.449728	1.09069	0	0	-0.223018	-0.323307	0.331627	0.599661	1.14727	0	0
1.17	2.00014	1.46151	-0.312861	0.699017	1.83681	1.01613	0.399909	0.135174	-0.142866	0.681924	-0.16676	0	0	-0.110436	-0.134437	-0.0920645	1.04913	-0.338975	0	0	-0.317616	0.153067	-0.087056	-0.0712904	-0.328337	0.672041	0.45723	1.09029	0	0	-0.22342	-0.326177	0.34104	0.604027	1.13913	0	0
1.18	1.99571	1.45933	-0.310854	0.699915	1.84711	1.01694	0.388235	0.140857	-0.144566	0.683023	-0.159655	0	0	-0.0828473	-0.134251	-0.0774635	1.10348	-0.355881	0	0	-0.319573	0.155589	-0.0813304	-0.0748714	-0.332039	0.666696	0.464633	1.08754	0	0	-0.222529	-0.329876	0.351923	0.608686	1.1321	0	0
1.19	2.00362	1.45854	-0.322408	0.70091	1.85732	1.01796	0.375618	0.144651	-0.14466	0.683105	-0.154329	0	0	-0.0565633	-0.13195	-0.0648959	1.15323	-0.366791	0	0	-0.321128	0.15523	-0.0785867	-0.0728944	-0.332607	0.672097	0.463166	1.09127	0	0	-0.226299	-0.329188	0.34315	0.613412	1.1384	0	0
1.2	2.02782	1.4585	-0.351538	0.701959	1.86748	1.01918	0.361524	0.147403	-0.143934	0.681934	-0.149183	0	0	-0.032902	-0.128078	-0.0545646	1.19706	-0.368671	0	0	-0.324579	0.15307	-0.0737841	-0.0719969	-0.333043	0.673946	0.463018	1.09234	0	0	-0.228168	-0.329138	0.338963	0.617206	1.14192	0	0
1.21	2.04922	1.45856	-0.378341	0.703008	1.87752	1.02039	0.34762	0.150491	-0.141599	0.678843	-0.136745	0	0	-0.0095223	-0.124092	-0.0454618	1.23749	-0.350439	0	0	-0.328495	0.150841	-0.0655267	-0.0759628	-0.333257	0.659999	0.467347	1.09608	0	0	-0.225956	-0.331597	0.347669	0.620063	1.1358	0	0
